<?xml version="1.0" encoding="UTF-8" ?>
<!DOCTYPE svg PUBLIC "-//W3C//DTD SVG 1.1//EN" "http://www.w3.org/Graphics/SVG/1.1/DTD/svg11.dtd">
<svg width="24pt" height="16pt" viewBox="0 0 24 16" version="1.1" xmlns="http://www.w3.org/2000/svg">
<g id="#828282ff">
<path fill="#828282" opacity="1.00" d=" M 4.44 0.00 L 7.64 0.00 C 9.53 0.27 10.86 1.53 12.00 2.96 C 12.99 1.98 13.60 0.22 15.29 0.37 C 15.29 3.27 15.23 6.18 15.22 9.09 C 16.08 8.41 16.89 7.69 17.67 6.93 C 18.42 7.71 19.18 8.47 19.93 9.24 C 20.06 6.15 19.42 2.99 20.47 0.00 L 20.90 0.00 C 20.84 0.15 20.71 0.46 20.65 0.61 C 22.19 1.48 23.74 3.08 23.49 5.01 C 23.55 8.51 23.49 12.01 23.46 15.52 C 21.17 14.13 18.92 11.88 15.99 12.50 C 14.45 13.10 13.17 14.15 11.96 15.24 C 10.48 14.11 9.04 12.45 7.03 12.45 C 4.49 12.24 2.62 14.22 0.66 15.48 C 0.66 11.64 0.54 7.80 0.68 3.96 C 0.84 1.88 2.76 0.79 4.44 0.00 Z" />
</g>
</svg>
