<?xml version="1.0" encoding="UTF-8" ?>
<!DOCTYPE svg PUBLIC "-//W3C//DTD SVG 1.1//EN" "http://www.w3.org/Graphics/SVG/1.1/DTD/svg11.dtd">
<svg width="17pt" height="20pt" viewBox="0 0 17 20" version="1.1" xmlns="http://www.w3.org/2000/svg">
<g id="#454040fe">
<path fill="#454040" opacity="1.00" d=" M 2.60 12.37 C -1.32 9.23 0.17 2.15 5.01 0.89 C 8.68 -0.67 13.34 2.12 13.93 6.03 C 14.35 8.09 13.68 10.13 12.57 11.86 C 14.11 13.72 15.61 15.62 17.00 17.60 L 17.00 18.42 C 16.52 18.72 15.57 19.32 15.09 19.62 C 12.85 18.24 11.78 15.69 9.95 13.87 C 7.39 14.00 4.52 14.53 2.60 12.37 M 5.48 3.65 C 3.32 4.43 2.19 7.50 3.69 9.36 C 4.91 11.60 8.33 12.14 10.08 10.20 C 13.42 7.44 9.28 1.23 5.48 3.65 Z" />
</g>
</svg>
