<?xml version="1.0" encoding="UTF-8" ?>
<!DOCTYPE svg PUBLIC "-//W3C//DTD SVG 1.1//EN" "http://www.w3.org/Graphics/SVG/1.1/DTD/svg11.dtd">
<svg width="17pt" height="20pt" viewBox="0 0 17 20" version="1.1" xmlns="http://www.w3.org/2000/svg">
<g id="#888888ff">
<path fill="#888888" opacity="1.00" d=" M 1.95 2.92 C 4.74 -0.72 10.90 -0.10 13.13 3.83 C 14.72 6.37 13.92 9.44 12.67 11.93 C 14.15 13.80 15.64 15.66 17.00 17.63 L 17.00 18.36 C 16.49 18.71 15.47 19.41 14.97 19.76 C 13.22 17.91 11.57 15.96 10.02 13.93 C 7.73 13.91 5.07 14.55 3.18 12.85 C 0.01 10.66 -0.65 5.82 1.95 2.92 M 5.47 3.65 C 3.04 4.55 2.15 8.05 4.07 9.89 C 6.03 12.62 10.91 11.36 11.23 8.01 C 11.84 4.98 8.25 1.86 5.47 3.65 Z" />
</g>
</svg>
