<?xml version="1.0" encoding="UTF-8" ?>
<!DOCTYPE svg PUBLIC "-//W3C//DTD SVG 1.1//EN" "http://www.w3.org/Graphics/SVG/1.1/DTD/svg11.dtd">
<svg width="149pt" height="40pt" viewBox="0 0 149 40" version="1.1" xmlns="http://www.w3.org/2000/svg">
<g id="#ffffffff">
<path fill="#ffffff" opacity="1.00" d=" M 0.00 0.00 L 25.79 0.00 C 25.86 13.33 25.82 26.67 25.81 40.00 L 0.00 40.00 L 0.00 0.00 M 10.49 35.55 C 11.42 35.55 13.27 35.56 14.20 35.56 C 14.19 33.50 14.18 31.44 14.14 29.39 C 16.01 29.21 17.97 29.17 19.65 28.25 C 21.91 26.03 21.32 22.35 20.13 19.73 C 17.11 18.26 13.73 18.66 10.49 18.65 C 10.51 24.28 10.51 29.92 10.49 35.55 Z" />
<path fill="#ffffff" opacity="1.00" d=" M 27.35 0.00 L 48.90 0.00 C 48.98 13.33 48.94 26.67 48.91 40.00 L 27.37 40.00 C 27.31 26.67 27.34 13.33 27.35 0.00 M 34.99 18.68 C 34.04 24.35 32.63 29.93 31.44 35.55 C 32.22 35.55 33.79 35.55 34.58 35.55 C 34.77 34.81 35.15 33.33 35.34 32.59 C 36.81 32.46 38.29 32.51 39.77 32.51 C 39.93 33.28 40.24 34.81 40.40 35.57 C 41.55 35.56 42.69 35.55 43.84 35.54 C 42.74 29.88 41.45 24.26 40.22 18.63 C 38.48 18.64 36.73 18.66 34.99 18.68 Z" />
<path fill="#ffffff" opacity="1.00" d=" M 50.50 0.00 L 75.09 0.00 C 75.10 13.33 75.10 26.67 75.09 40.00 L 50.51 40.00 C 50.47 26.67 50.49 13.33 50.50 0.00 M 56.36 32.54 C 55.89 32.80 54.94 33.33 54.47 33.59 C 54.49 34.98 54.50 36.37 54.51 37.76 C 55.62 37.77 56.73 37.77 57.83 37.77 C 57.84 37.22 57.87 36.12 57.88 35.57 C 60.41 35.56 62.95 35.56 65.48 35.55 C 65.50 36.11 65.52 37.23 65.53 37.80 C 66.42 37.77 68.20 37.73 69.09 37.71 C 69.09 36.68 69.08 34.61 69.08 33.57 C 68.70 33.42 67.95 33.13 67.57 32.98 C 67.37 28.21 67.55 23.43 67.52 18.65 C 64.21 18.65 60.90 18.65 57.59 18.66 C 57.22 23.28 57.19 27.97 56.36 32.54 Z" />
<path fill="#ffffff" opacity="1.00" d=" M 76.62 0.00 L 98.11 0.00 C 98.11 13.33 98.11 26.67 98.11 40.00 L 76.63 40.00 C 76.60 26.67 76.61 13.33 76.62 0.00 M 80.74 18.65 C 80.75 24.28 80.75 29.92 80.74 35.55 C 81.90 35.55 83.07 35.55 84.24 35.55 C 84.23 33.16 84.22 30.77 84.19 28.38 C 85.55 28.37 86.91 28.36 88.28 28.36 C 88.27 30.76 88.25 33.15 88.23 35.55 C 89.14 35.54 90.96 35.54 91.88 35.53 C 91.80 29.91 91.82 24.29 91.86 18.67 C 90.96 18.66 89.14 18.65 88.24 18.64 C 88.26 21.05 88.27 23.47 88.26 25.88 C 86.91 25.87 85.56 25.86 84.21 25.84 C 84.22 23.45 84.23 21.05 84.23 18.65 C 83.36 18.65 81.61 18.65 80.74 18.65 Z" />
<path fill="#ffffff" opacity="1.00" d=" M 122.83 0.00 L 149.00 0.00 L 149.00 40.00 L 122.83 40.00 C 122.82 26.67 122.83 13.33 122.83 0.00 M 127.64 18.65 C 127.65 24.28 127.66 29.92 127.64 35.55 C 128.54 35.55 130.36 35.56 131.26 35.56 C 131.26 33.70 131.26 31.85 131.28 29.99 C 131.54 29.70 132.06 29.12 132.33 28.84 C 133.48 31.09 134.64 33.33 135.81 35.58 C 137.01 35.56 138.21 35.52 139.41 35.47 C 137.68 32.40 136.07 29.26 134.44 26.13 C 136.12 23.65 137.75 21.15 139.42 18.67 C 138.54 18.66 136.80 18.64 135.92 18.63 C 134.35 21.04 132.87 23.51 131.30 25.92 C 131.23 23.49 131.25 21.07 131.27 18.64 C 130.36 18.64 128.55 18.65 127.64 18.65 Z" />
<path fill="#ffffff" opacity="1.00" d=" M 99.59 0.08 C 106.83 0.08 114.06 0.08 121.29 0.08 C 121.28 13.38 121.29 26.69 121.28 40.00 L 99.61 40.00 C 99.57 26.69 99.61 13.38 99.59 0.08 M 104.14 18.67 C 104.19 24.29 104.20 29.92 104.13 35.54 C 105.38 35.54 106.64 35.54 107.90 35.52 C 109.28 31.59 110.83 27.72 112.16 23.77 C 112.41 27.68 112.23 31.61 112.22 35.53 C 113.05 35.54 114.70 35.55 115.52 35.56 C 115.49 29.92 115.49 24.29 115.52 18.66 C 114.54 18.65 112.58 18.63 111.60 18.62 C 110.04 22.06 108.65 25.58 107.53 29.18 C 107.03 25.69 107.29 22.15 107.28 18.64 C 106.49 18.65 104.92 18.66 104.14 18.67 Z" />
<path fill="#ffffff" opacity="1.00" d=" M 14.18 21.16 C 14.93 21.15 16.44 21.15 17.19 21.15 C 17.31 22.92 18.20 25.28 16.79 26.67 C 16.14 26.74 14.85 26.86 14.20 26.93 C 14.18 25.00 14.18 23.08 14.18 21.16 Z" />
<path fill="#ffffff" opacity="1.00" d=" M 60.75 21.15 C 61.51 21.15 63.02 21.16 63.78 21.16 C 63.76 25.18 63.75 29.20 63.79 33.23 C 62.35 33.25 60.92 33.29 59.48 33.33 C 60.95 29.44 60.39 25.20 60.75 21.15 Z" />
<path fill="#ffffff" opacity="1.00" d=" M 37.67 21.91 C 38.17 24.67 38.74 27.42 39.08 30.20 C 38.30 30.20 36.73 30.18 35.94 30.17 C 36.19 27.35 36.88 24.61 37.67 21.91 Z" />
</g>
</svg>
