<?xml version="1.0"?>
<svg width="580" height="400" xmlns="http://www.w3.org/2000/svg">
 <!-- Created with Method Draw - http://github.com/duopixel/Method-Draw/ -->

 <g>
  <title>background</title>
  <rect fill="#fff" id="canvas_background" height="402" width="582" y="-1" x="-1"/>
  <g display="none" overflow="visible" y="0" x="0" height="100%" width="100%" id="canvasGrid">
   <rect fill="url(#gridpattern)" stroke-width="0" y="0" x="0" height="100%" width="100%"/>
  </g>
 </g>
 <g>
  <title>Layer 1</title>
  <g transform="rotate(-180 290 200)" id="svg_7">
   <g transform="matrix(5.55556 0 0 5.55556 0 0)" id="svg_4">
    <path id="svg_6" d="m45.700001,25.535c0.41,-0.33 1.219997,-0.98 1.630001,-1.309999c3.839996,3.65 7.709999,7.279999 11.369999,11.109999l0,1.330002c-3.700001,3.809998 -7.5,7.549999 -11.450001,11.110001l-1.27,0c-0.07,-0.010002 -0.209999,-0.02 -0.279999,-0.030003l0,-1.369999c3.279999,-3.650002 6.959999,-6.919998 10.459999,-10.349998c-3.459999,-3.460003 -7.060001,-6.760002 -10.459999,-10.270002l0,-0.219999z" opacity="0.89" fill="#626769"/>
   </g>
  </g>
 </g>
</svg>