<?xml version="1.0" encoding="utf-8"?>
<!-- Generator: Adobe Illustrator 15.0.2, SVG Export Plug-In . SVG Version: 6.00 Build 0)  -->
<!DOCTYPE svg PUBLIC "-//W3C//DTD SVG 1.1//EN" "http://www.w3.org/Graphics/SVG/1.1/DTD/svg11.dtd">
<svg version="1.1" id="Capa_1" xmlns="http://www.w3.org/2000/svg" xmlns:xlink="http://www.w3.org/1999/xlink" x="0px" y="0px"
	 width="15px" height="15px" viewBox="38 34 15 15" enable-background="new 38 34 15 15" xml:space="preserve">
<g>
	<path d="M50.745,47.207c-1.967-0.749-2.596-1.381-2.596-2.732c0-0.813,0.601-0.547,0.864-2.034c0.109-0.616,0.64-0.01,0.741-1.417
		c0-0.562-0.289-0.701-0.289-0.701s0.146-0.831,0.204-1.47C49.741,38.057,49.229,36,46.5,36s-3.242,2.057-3.17,2.853
		c0.058,0.639,0.204,1.47,0.204,1.47s-0.289,0.139-0.289,0.701c0.102,1.407,0.632,0.801,0.741,1.417
		c0.264,1.487,0.864,1.222,0.864,2.034c0,1.352-0.629,1.983-2.596,2.732C40.282,47.958,39,48.723,39,49.245S39,51,39,51h7.5H54
		c0,0,0-1.232,0-1.755S52.718,47.958,50.745,47.207z"/>
</g>
</svg>
