<?xml version="1.0" encoding="UTF-8" ?>
<!DOCTYPE svg PUBLIC "-//W3C//DTD SVG 1.1//EN" "http://www.w3.org/Graphics/SVG/1.1/DTD/svg11.dtd">
<svg width="17pt" height="17pt" viewBox="0 0 17 17" version="1.1" xmlns="http://www.w3.org/2000/svg">
<g id="#000000b0">
<path fill="#000000" opacity="0.69" d=" M 2.94 0.00 L 14.18 0.00 C 14.20 1.49 14.23 2.97 14.25 4.46 C 14.93 4.61 16.31 4.93 17.00 5.09 L 17.00 14.07 C 16.37 14.18 15.12 14.39 14.50 14.50 C 14.32 15.13 13.98 16.38 13.80 17.00 L 3.17 17.00 C 3.07 16.36 2.88 15.08 2.78 14.44 C 2.09 14.34 0.70 14.16 0.00 14.06 L 0.00 5.14 C 0.73 4.98 2.19 4.65 2.92 4.48 C 2.93 2.99 2.94 1.49 2.94 0.00 M 3.89 1.04 C 3.89 2.28 3.95 3.52 4.06 4.75 C 7.03 4.72 10.00 4.72 12.97 4.76 C 13.10 3.52 13.17 2.27 13.19 1.02 C 10.09 0.96 6.99 0.97 3.89 1.04 M 0.93 5.83 C 0.85 8.25 0.72 10.68 1.02 13.09 C 1.49 13.15 2.43 13.27 2.90 13.33 C 2.94 12.04 3.03 10.76 3.14 9.48 C 6.72 9.51 10.30 9.50 13.88 9.45 C 14.27 10.71 13.73 14.39 16.02 13.07 C 16.53 10.72 16.25 8.30 16.09 5.92 C 11.04 5.67 5.98 5.87 0.93 5.83 M 3.91 10.66 C 3.98 12.50 3.95 14.34 4.02 16.17 C 7.06 16.38 10.12 16.40 13.16 16.24 C 13.19 14.38 13.09 12.51 13.11 10.65 C 10.04 10.62 6.98 10.63 3.91 10.66 Z" />
<path fill="#000000" opacity="0.69" d=" M 14.48 7.35 C 14.78 7.65 14.78 7.65 14.48 7.35 Z" />
</g>
</svg>
