<?xml version="1.0" encoding="UTF-8" ?>
<!DOCTYPE svg PUBLIC "-//W3C//DTD SVG 1.1//EN" "http://www.w3.org/Graphics/SVG/1.1/DTD/svg11.dtd">
<svg width="25pt" height="23pt" viewBox="0 0 25 23" version="1.1" xmlns="http://www.w3.org/2000/svg">
<g id="#85cdb4ff">
<path fill="#85cdb4" opacity="1.00" d=" M 6.18 3.15 C 11.16 -1.15 19.68 0.43 22.77 6.24 C 26.24 11.88 23.21 20.09 16.90 22.10 C 12.14 24.01 7.04 21.64 3.78 18.08 C 4.40 17.64 5.65 16.74 6.27 16.29 C 8.51 17.97 10.94 20.06 13.97 19.56 C 19.19 19.23 22.73 13.05 20.33 8.38 C 18.33 3.66 11.51 2.29 7.84 5.88 C 5.43 7.80 5.05 10.98 5.86 13.78 C 5.34 14.31 4.30 15.36 3.79 15.88 C 2.57 14.77 1.31 13.71 0.00 12.71 L 0.00 12.42 C 0.28 12.38 0.83 12.32 1.10 12.28 C 2.81 9.26 3.16 5.30 6.18 3.15 Z" />
</g>
</svg>
