<svg xmlns="http://www.w3.org/2000/svg" xmlns:xlink="http://www.w3.org/1999/xlink" width="217" height="380" viewBox="0 0 217 380"><svg width="13" height="24" viewBox="0 0 13 24" id="arrow-slide" y="0"><path fill="#626769" opacity=".89" d="M0 1.76L1.63.45C5.47 4.1 9.34 7.73 13 11.56v1.33C9.3 16.7 5.5 20.44 1.55 24H.28c-.07-.01-.21-.02-.28-.03V22.6c3.28-3.65 6.96-6.92 10.46-10.35C7 8.79 3.4 5.49 0 1.98v-.22z"/></svg>
<svg viewBox="283 188 13 24" enable-background="new 283 188 13 24" width="13" height="24" id="arrow-slide-prev" y="24"><title>background</title><title>Layer 1</title><g transform="rotate(-180 290 200)"><g transform="scale(5.556)"><path opacity=".89" fill="#626769" enable-background="new" d="M51.1 34.1c.1-.1.2-.2.3-.2.7.7 1.4 1.3 2 2v.2c-.7.7-1.3 1.4-2 2H51.1v-.2c.6-.7 1.2-1.3 1.9-1.9-.6-.6-1.3-1.2-1.9-1.9z"/></g></g><path fill="none" d="M326.1 256.9l70.7-70.7M391 322l70.7-70.7"/></svg>
<svg width="24" height="16" viewBox="0 0 24 16" id="bookmark" y="48"><path fill="#828282" d="M4.44 0h3.2C9.53.27 10.86 1.53 12 2.96c.99-.98 1.6-2.74 3.29-2.59 0 2.9-.06 5.81-.07 8.72.86-.68 1.67-1.4 2.45-2.16.75.78 1.51 1.54 2.26 2.31.13-3.09-.51-6.25.54-9.24h.43c-.06.15-.19.46-.25.61 1.54.87 3.09 2.47 2.84 4.4.06 3.5 0 7-.03 10.51-2.29-1.39-4.54-3.64-7.47-3.02-1.54.6-2.82 1.65-4.03 2.74-1.48-1.13-2.92-2.79-4.93-2.79-2.54-.21-4.41 1.77-6.37 3.03 0-3.84-.12-7.68.02-11.52C.84 1.88 2.76.79 4.44 0z"/></svg>
<svg width="28.395" height="28.808" viewBox="0 0 28.395 28.808" id="calendar" y="64"><path d="M21.266 6.08c1.105 0 2-.888 2-1.993v-2.09c0-1.105-.895-1.997-2-1.997-1.104 0-1.996.892-1.996 1.998v2.09c0 1.104.892 1.993 1.996 1.993zM28.365 3.457h-4.02v1.017c0 1.676-1.364 3.043-3.044 3.043s-3.04-1.367-3.04-3.043V3.457h-8.117v1.017c0 1.676-1.363 3.043-3.043 3.043S4.06 6.15 4.06 4.473V3.457L0 3.407v25.4h26.37l2.024-.005-.03-25.345zM26.37 26.785H2.03V10.557h24.34v16.228zM7.068 6.08c1.105 0 1.998-.888 1.998-1.993v-2.09C9.066.893 8.174 0 7.068 0 5.965 0 5.072.892 5.072 1.998v2.09c0 1.104.893 1.993 1.996 1.993zM10.15 12.735h3.195v2.82H10.15zM15.318 12.735h3.2v2.82h-3.2zM20.11 12.735h3.196v2.82H20.11zM10.15 17.42h3.195v2.82H10.15zM15.318 17.42h3.2v2.82h-3.2zM20.11 17.42h3.196v2.82H20.11zM10.15 22.198h3.195v2.82H10.15zM5.072 17.42h3.193v2.82H5.072zM5.072 22.198h3.193v2.82H5.072zM15.318 22.198h3.2v2.82h-3.2zM20.11 22.198h3.196v2.82H20.11z"/></svg>
<svg width="22" height="23" viewBox="0 0 22 23" id="container_archive" y="93"><g fill="#e2e9e4"><path d="M0 9.34C2.27 6.57 3.83 3.33 5.88.41 9 2.17 12.17 3.84 15.1 5.92c-1.73 3.09-3.53 6.15-5.38 9.18C6.38 13.49 3.28 11.45 0 9.71v-.37m6.18-5.07l-.87 2.46c1.59.9 3.11 1.92 4.74 2.76 3.24-2.36-2.18-4.01-3.87-5.22zM18.08 3.97c1.31.49 2.61.98 3.92 1.48v1.29c-1.04-.44-2.08-.86-3.14-1.26-2.92 4.42-5.32 9.15-8.08 13.68-2.53-1.29-5.77-2.14-7.04-4.94 2.19.89 4.29 1.96 6.37 3.08 2.98-4.25 5.17-8.97 7.97-13.33zM12.61 21.41c-1.4-1.48.11-4.54 2.2-4.1 2.31 0 2.73 2.78 1.94 4.49-1.32.43-3.21 1.17-4.14-.39m1.27-2.36c-.5 1.63.08 2.18 1.74 1.65.47-1.6-.1-2.15-1.74-1.65z"/></g></svg>
<svg width="15" height="15" viewBox="38 34 15 15" enable-background="new 38 34 15 15" id="inlogin" y="116"><path fill="#2DBA4E" d="M50.745 46.207c-1.967-.75-2.596-1.38-2.596-2.732 0-.813.6-.547.863-2.034.11-.615.64-.01.74-1.416 0-.562-.288-.7-.288-.7s.146-.832.204-1.47c.07-.797-.44-2.854-3.17-2.854s-3.242 2.057-3.17 2.853c.058.64.204 1.47.204 1.47s-.29.14-.29.7c.103 1.408.633.802.742 1.418.264 1.488.864 1.223.864 2.035 0 1.352-.63 1.983-2.596 2.732-1.972.75-3.254 1.516-3.254 2.038V50h15v-1.755s-1.282-1.287-3.255-2.038z"/></svg>
<svg viewBox="211.5 210.1 217 50.4" enable-background="new 211.5 210.1 217 50.4" width="217" height="50.4" id="logo" y="131"><path fill="#2ABE7A" d="M211.5 210.4h38c.1 16.7 0 33.4 0 50.1h-38v-50.1"/><path fill="#2ABE7A" d="M232.4 236.9h4.4c.2 2.2 1.5 5.2-.6 6.9-1 .1-2.9.3-3.8.3v-7.2zM211.5 210.4h38.1v50.1h-38.1zM251.9 210.4h32.5v50.1h-32.5zM286.7 210.4h32.5v50.1h-32.5zM321.3 210.4h32.5v50.1h-32.5zM321.3 210.4h32.5v50.1h-32.5zM356 210.4h32.5v50.1H356zM390.4 210.4h38.1v50.1h-38.1z"/><path fill="#fff" d="M225.6 253.4v-16.6h7.3c4 0 6.1 2.5 6.1 5.4s-2 5.4-6.1 5.4h-3.4v6l-3.9-.2zm9.3-11.4c0-1.4-1-2.4-2.5-2.4h-2.9v4.8h2.8c1.6 0 2.6-.9 2.6-2.4zM271.3 253l-.9-3h-6l-.9 3h-4.3l5.8-16.7h4.8l5.8 16.7h-4.3zm-3.9-13.2l-2.2 7.3h4.5l-2.3-7.3zM294.1 250.7c1.6-.3 2.6-.7 3.1-5.4l.9-8.6h11.6v13.8h1.7v6h-4v-3.1h-9.3v3.1h-4v-5.8zm5-.2h6.7v-10.9h-4l-.6 5.7c-.3 2.5-1 4.1-2.1 5.2zM341.2 253.4v-7.1h-6.5v7.1h-4v-16.6h4v6.6h6.5v-6.6h4v16.7l-4-.1zM364.6 253.4v-16.6h4v9.9l6.4-9.9h4v16.7h-4v-10.4l-6.6 10.3h-3.8zM412.7 253.4l-4.5-6.5-1.4 1.9v4.7h-4v-16.6h4v7.6l5.5-7.6h4.6l-6.3 7.9 6.7 8.8-4.6-.2z"/></svg>
<svg width="149" height="40" viewBox="0 0 149 40" id="logo--white" y="182"><g fill="#fff"><path d="M0 0h25.79c.07 13.33.03 26.67.02 40H0V0m10.49 35.55c.93 0 2.78.01 3.71.01-.01-2.06-.02-4.12-.06-6.17 1.87-.18 3.83-.22 5.51-1.14 2.26-2.22 1.67-5.9.48-8.52-3.02-1.47-6.4-1.07-9.64-1.08.02 5.63.02 11.27 0 16.9zM27.35 0H48.9c.08 13.33.04 26.67.01 40H27.37c-.06-13.33-.03-26.67-.02-40m7.64 18.68c-.95 5.67-2.36 11.25-3.55 16.87h3.14l.76-2.96c1.47-.13 2.95-.08 4.43-.08.16.77.47 2.3.63 3.06l3.44-.03c-1.1-5.66-2.39-11.28-3.62-16.91-1.74.01-3.49.03-5.23.05zM50.5 0h24.59c.01 13.33.01 26.67 0 40H50.51c-.04-13.33-.02-26.67-.01-40m5.86 32.54l-1.89 1.05c.02 1.39.03 2.78.04 4.17 1.11.01 2.22.01 3.32.01.01-.55.04-1.65.05-2.2 2.53-.01 5.07-.01 7.6-.02.02.56.04 1.68.05 2.25.89-.03 2.67-.07 3.56-.09 0-1.03-.01-3.1-.01-4.14-.38-.15-1.13-.44-1.51-.59-.2-4.77-.02-9.55-.05-14.33-3.31 0-6.62 0-9.93.01-.37 4.62-.4 9.31-1.23 13.88zM76.62 0h21.49v40H76.63c-.03-13.33-.02-26.67-.01-40m4.12 18.65c.01 5.63.01 11.27 0 16.9h3.5c-.01-2.39-.02-4.78-.05-7.17 1.36-.01 2.72-.02 4.09-.02-.01 2.4-.03 4.79-.05 7.19.91-.01 2.73-.01 3.65-.02-.08-5.62-.06-11.24-.02-16.86-.9-.01-2.72-.02-3.62-.03.02 2.41.03 4.83.02 7.24-1.35-.01-2.7-.02-4.05-.04.01-2.39.02-4.79.02-7.19h-3.49zM122.83 0H149v40h-26.17c-.01-13.33 0-26.67 0-40m4.81 18.65c.01 5.63.02 11.27 0 16.9.9 0 2.72.01 3.62.01 0-1.86 0-3.71.02-5.57.26-.29.78-.87 1.05-1.15 1.15 2.25 2.31 4.49 3.48 6.74 1.2-.02 2.4-.06 3.6-.11-1.73-3.07-3.34-6.21-4.97-9.34 1.68-2.48 3.31-4.98 4.98-7.46l-3.5-.04c-1.57 2.41-3.05 4.88-4.62 7.29-.07-2.43-.05-4.85-.03-7.28-.91 0-2.72.01-3.63.01zM99.59.08h21.7c-.01 13.3 0 26.61-.01 39.92H99.61c-.04-13.31 0-26.62-.02-39.92m4.55 18.59c.05 5.62.06 11.25-.01 16.87 1.25 0 2.51 0 3.77-.02 1.38-3.93 2.93-7.8 4.26-11.75.25 3.91.07 7.84.06 11.76.83.01 2.48.02 3.3.03-.03-5.64-.03-11.27 0-16.9l-3.92-.04c-1.56 3.44-2.95 6.96-4.07 10.56-.5-3.49-.24-7.03-.25-10.54-.79.01-2.36.02-3.14.03zM14.18 21.16c.75-.01 2.26-.01 3.01-.01.12 1.77 1.01 4.13-.4 5.52-.65.07-1.94.19-2.59.26-.02-1.93-.02-3.85-.02-5.77zM60.75 21.15c.76 0 2.27.01 3.03.01-.02 4.02-.03 8.04.01 12.07-1.44.02-2.87.06-4.31.1 1.47-3.89.91-8.13 1.27-12.18zM37.67 21.91c.5 2.76 1.07 5.51 1.41 8.29-.78 0-2.35-.02-3.14-.03.25-2.82.94-5.56 1.73-8.26z"/></g></svg>
<svg width="21.5" height="15" viewBox="13.5 17.5 21.5 15" enable-background="new 13.5 17.5 21.5 15" id="mail" y="222"><path fill="#474747" d="M32.17 22.455l-6.84-3.95c-.205-.12-.455-.12-.66 0l-6.84 3.95c-.204.118-.33.335-.33.57v7.9c0 .363.295.658.66.658h13.68c.365 0 .66-.295.66-.66v-7.898c0-.235-.125-.452-.33-.57zM25 19.835l5.646 3.26L25 26.355l-5.645-3.26L25 19.835zm-6.183 10.43V23.8l5.963 3.444c.067.038.144.06.22.06s.152-.022.22-.06l5.963-3.444v6.466H18.817z"/></svg>
<svg width="39" height="18" viewBox="0 0 39 18" id="menu_icon" y="237"><g fill="#888"><path d="M0 0h39v4H0V0zM0 7h39v4H0V7zM0 14h39v4H0v-4z"/></g></svg>
<svg width="15" height="15" viewBox="38 34 15 15" enable-background="new 38 34 15 15" id="outlogin" y="255"><path d="M50.745 47.207c-1.967-.75-2.596-1.38-2.596-2.732 0-.813.6-.547.863-2.034.11-.615.64-.01.74-1.416 0-.562-.288-.7-.288-.7s.146-.832.204-1.47c.07-.797-.44-2.854-3.17-2.854s-3.242 2.057-3.17 2.853c.058.64.204 1.47.204 1.47s-.29.14-.29.7c.103 1.408.633.802.742 1.418.264 1.488.864 1.223.864 2.035 0 1.352-.63 1.983-2.596 2.732-1.972.75-3.254 1.516-3.254 2.038V51h15v-1.755s-1.282-1.287-3.255-2.038z"/></svg>
<svg width="17" height="17" viewBox="0 0 17 17" id="print" y="270"><g><path opacity=".69" d="M2.94 0h11.24c.02 1.49.05 2.97.07 4.46.68.15 2.06.47 2.75.63v8.98c-.63.11-1.88.32-2.5.43-.18.63-.52 1.88-.7 2.5H3.17c-.1-.64-.29-1.92-.39-2.56-.69-.1-2.08-.28-2.78-.38V5.14c.73-.16 2.19-.49 2.92-.66.01-1.49.02-2.99.02-4.48m.95 1.04c0 1.24.06 2.48.17 3.71 2.97-.03 5.94-.03 8.91.01.13-1.24.2-2.49.22-3.74-3.1-.06-6.2-.05-9.3.02M.93 5.83c-.08 2.42-.21 4.85.09 7.26l1.88.24c.04-1.29.13-2.57.24-3.85 3.58.03 7.16.02 10.74-.03.39 1.26-.15 4.94 2.14 3.62.51-2.35.23-4.77.07-7.15-5.05-.25-10.11-.05-15.16-.09m2.98 4.83c.07 1.84.04 3.68.11 5.51 3.04.21 6.1.23 9.14.07.03-1.86-.07-3.73-.05-5.59-3.07-.03-6.13-.02-9.2.01zM14.48 7.35c.3.3.3.3 0 0z"/></g></svg>
<svg width="25" height="23" viewBox="0 0 25 23" id="reload" y="287"><path fill="#85cdb4" d="M6.18 3.15c4.98-4.3 13.5-2.72 16.59 3.09 3.47 5.64.44 13.85-5.87 15.86-4.76 1.91-9.86-.46-13.12-4.02.62-.44 1.87-1.34 2.49-1.79 2.24 1.68 4.67 3.77 7.7 3.27 5.22-.33 8.76-6.51 6.36-11.18-2-4.72-8.82-6.09-12.49-2.5-2.41 1.92-2.79 5.1-1.98 7.9-.52.53-1.56 1.58-2.07 2.1-1.22-1.11-2.48-2.17-3.79-3.17v-.29c.28-.04.83-.1 1.1-.14C2.81 9.26 3.16 5.3 6.18 3.15z"/></svg>
<svg width="17" height="20" viewBox="0 0 17 20" id="search-icon" y="310"><path fill="#454040" d="M2.6 12.37C-1.32 9.23.17 2.15 5.01.89c3.67-1.56 8.33 1.23 8.92 5.14.42 2.06-.25 4.1-1.36 5.83 1.54 1.86 3.04 3.76 4.43 5.74v.82c-.48.3-1.43.9-1.91 1.2-2.24-1.38-3.31-3.93-5.14-5.75-2.56.13-5.43.66-7.35-1.5m2.88-8.72c-2.16.78-3.29 3.85-1.79 5.71 1.22 2.24 4.64 2.78 6.39.84 3.34-2.76-.8-8.97-4.6-6.55z"/></svg>
<svg width="17" height="20" viewBox="0 0 17 20" id="search-small" y="330"><path fill="#888" d="M1.95 2.92C4.74-.72 10.9-.1 13.13 3.83c1.59 2.54.79 5.61-.46 8.1 1.48 1.87 2.97 3.73 4.33 5.7v.73c-.51.35-1.53 1.05-2.03 1.4-1.75-1.85-3.4-3.8-4.95-5.83-2.29-.02-4.95.62-6.84-1.08C.01 10.66-.65 5.82 1.95 2.92m3.52.73c-2.43.9-3.32 4.4-1.4 6.24 1.96 2.73 6.84 1.47 7.16-1.88.61-3.03-2.98-6.15-5.76-4.36z"/></svg>
<svg width="17" height="16" viewBox="0 0 17 16" id="tag" y="350"><path fill="#828282" d="M.43.36c2.54.3 5.47-.21 7.6 1.53 3.12 2.42 6.04 5.1 8.76 7.96-1.8 2.1-3.67 4.14-5.57 6.15h-.34C8 13.98 5.41 11.56 2.84 9.17.31 7.04.35 3.38.43.36M3.45 2.3c-1.69-.08-1.63 2.68.05 2.54 1.72.11 1.65-2.71-.05-2.54z"/></svg>
<svg width="29" height="14" viewBox="0 0 29 14" id="up" y="366"><path fill="#808080" d="M14.03 0h1.39C20.03 2.57 24.44 5.49 29 8.15V14h-.93c-4.41-2.77-8.88-5.44-13.32-8.15C10.27 8.53 5.81 11.26 1.36 14H.42c.07-1.95-.1-3.92.1-5.86C5.04 5.46 9.45 2.58 14.03 0z"/></svg>
</svg>