<?xml version="1.0" encoding="UTF-8" ?>
<!DOCTYPE svg PUBLIC "-//W3C//DTD SVG 1.1//EN" "http://www.w3.org/Graphics/SVG/1.1/DTD/svg11.dtd">
<svg width="22pt" height="23pt" viewBox="0 0 22 23" version="1.1" xmlns="http://www.w3.org/2000/svg">
<g id="#e2e9e4fe">
<path fill="#e2e9e4" opacity="1.00" d=" M 0.00 9.34 C 2.27 6.57 3.83 3.33 5.88 0.41 C 9.00 2.17 12.17 3.84 15.10 5.92 C 13.37 9.01 11.57 12.07 9.72 15.10 C 6.38 13.49 3.28 11.45 0.00 9.71 L 0.00 9.34 M 6.18 4.27 C 5.89 5.09 5.60 5.91 5.31 6.73 C 6.90 7.63 8.42 8.65 10.05 9.49 C 13.29 7.13 7.87 5.48 6.18 4.27 Z" />
<path fill="#e2e9e4" opacity="1.00" d=" M 18.08 3.97 C 19.39 4.46 20.69 4.95 22.00 5.45 L 22.00 6.74 C 20.96 6.30 19.92 5.88 18.86 5.48 C 15.94 9.90 13.54 14.63 10.78 19.16 C 8.25 17.87 5.01 17.02 3.74 14.22 C 5.93 15.11 8.03 16.18 10.11 17.30 C 13.09 13.05 15.28 8.33 18.08 3.97 Z" />
<path fill="#e2e9e4" opacity="1.00" d=" M 12.61 21.41 C 11.21 19.93 12.72 16.87 14.81 17.31 C 17.12 17.31 17.54 20.09 16.75 21.80 C 15.43 22.23 13.54 22.97 12.61 21.41 M 13.88 19.05 C 13.38 20.68 13.96 21.23 15.62 20.70 C 16.09 19.10 15.52 18.55 13.88 19.05 Z" />
</g>
</svg>
