<?xml version="1.0" encoding="utf-8"?>
<!-- Generator: Adobe Illustrator 15.0.2, SVG Export Plug-In . SVG Version: 6.00 Build 0)  -->
<!DOCTYPE svg PUBLIC "-//W3C//DTD SVG 1.1//EN" "http://www.w3.org/Graphics/SVG/1.1/DTD/svg11.dtd">
<svg version="1.1" id="Layer_1" xmlns="http://www.w3.org/2000/svg" xmlns:xlink="http://www.w3.org/1999/xlink" x="0px" y="0px"
	 width="21.5px" height="15px" viewBox="13.5 17.5 21.5 15" enable-background="new 13.5 17.5 21.5 15" xml:space="preserve">
<path fill="#474747" d="M32.171,22.455l-6.841-3.951c-0.205-0.118-0.455-0.118-0.659,0l-6.841,3.951
	c-0.204,0.118-0.33,0.335-0.33,0.57v7.899c0,0.364,0.295,0.659,0.659,0.659h13.682c0.364,0,0.659-0.295,0.659-0.659v-7.899
	C32.5,22.79,32.375,22.573,32.171,22.455z M25,19.836l5.646,3.259L25,26.355l-5.645-3.26L25,19.836z M18.817,30.266v-6.466
	l5.963,3.444c0.067,0.038,0.144,0.059,0.22,0.059s0.152-0.021,0.22-0.059l5.963-3.444v6.466H18.817z"/>
</svg>
